STARTFONT 2.1
FONT -Adobe-ITC Avant Garde Gothic-Book-O-Normal--17-120-100-100-P-92-ISO8859-1
SIZE 12 100 100
FONTBOUNDINGBOX 22 20 -2 -4

STARTPROPERTIES 25
FONTNAME_REGISTRY ""
FAMILY_NAME "ITC Avant Garde Gothic"
FOUNDRY "Adobe"
WEIGHT_NAME "Book"
SLANT "O"
SETWIDTH_NAME "Normal"
ADD_STYLE_NAME ""
PIXEL_SIZE 17
POINT_SIZE 120
RESOLUTION_X 100
RESOLUTION_Y 100
SPACING "P"
AVERAGE_WIDTH 92
CHARSET_REGISTRY "ISO8859"
CHARSET_ENCODING "1"
CHARSET_COLLECTIONS "ASCII ISO8859-1 ADOBE-STANDARD"
FULL_NAME "ITC Avant Garde Gothic Book Oblique"
COPYRIGHT "Copyright (c) 1987 Adobe Systems, Inc., Portions Copyright 1988 Digital Equipment Corp."
CAP_HEIGHT 13
X_HEIGHT 9
WEIGHT 10
QUAD_WIDTH 10
DEFAULT_CHAR 32
FONT_DESCENT 3
FONT_ASCENT 15
ENDPROPERTIES

CHARS 190

STARTCHAR space
ENCODING 32
SWIDTH 277 0
DWIDTH 4 0
BBX 1 1 0 0
BITMAP
00
ENDCHAR

STARTCHAR exclam
ENCODING 33
SWIDTH 295 0
DWIDTH 5 0
BBX 4 13 2 0
BITMAP
10
10
10
20
20
20
20
40
40
40
00
80
80
ENDCHAR

STARTCHAR quotedbl
ENCODING 34
SWIDTH 309 0
DWIDTH 5 0
BBX 4 4 2 9
BITMAP
50
50
A0
A0
ENDCHAR

STARTCHAR numbersign
ENCODING 35
SWIDTH 720 0
DWIDTH 9 0
BBX 9 12 1 0
BITMAP
0480
0480
0900
0900
3F80
1200
2400
FE00
4800
4800
9000
9000
ENDCHAR

STARTCHAR dollar
ENCODING 36
SWIDTH 554 0
DWIDTH 9 0
BBX 9 15 1 -1
BITMAP
0200
0200
0F00
1080
2080
2000
1000
0800
0400
0200
8200
8400
7800
2000
2000
ENDCHAR

STARTCHAR percent
ENCODING 37
SWIDTH 775 0
DWIDTH 12 0
BBX 10 13 2 0
BITMAP
3840
4440
8480
8900
7200
0400
0400
0800
1380
2440
4840
8880
8700
ENDCHAR

STARTCHAR ampersand
ENCODING 38
SWIDTH 757 0
DWIDTH 13 0
BBX 11 13 2 0
BITMAP
0700
0880
1080
1080
1100
0A20
1C40
2480
4300
8100
8300
8480
7840
ENDCHAR

STARTCHAR quoteright
ENCODING 39
SWIDTH 351 0
DWIDTH 6 0
BBX 2 3 4 10
BITMAP
40
40
80
ENDCHAR

STARTCHAR parenleft
ENCODING 40
SWIDTH 369 0
DWIDTH 6 0
BBX 7 15 1 -2
BITMAP
06
08
10
20
20
40
40
80
80
80
80
80
40
40
20
ENDCHAR

STARTCHAR parenright
ENCODING 41
SWIDTH 369 0
DWIDTH 6 0
BBX 7 15 -1 -2
BITMAP
08
04
04
02
02
02
02
02
04
04
08
08
10
20
C0
ENDCHAR

STARTCHAR asterisk
ENCODING 42
SWIDTH 425 0
DWIDTH 7 0
BBX 6 5 2 8
BITMAP
28
10
FC
20
50
ENDCHAR

STARTCHAR plus
ENCODING 43
SWIDTH 606 0
DWIDTH 10 0
BBX 8 9 1 1
BITMAP
04
04
08
08
FF
10
10
20
20
ENDCHAR

STARTCHAR comma
ENCODING 44
SWIDTH 277 0
DWIDTH 5 0
BBX 2 3 1 -1
BITMAP
40
40
80
ENDCHAR

STARTCHAR minus
ENCODING 45
SWIDTH 606 0
DWIDTH 10 0
BBX 8 1 1 5
BITMAP
FF
ENDCHAR

STARTCHAR period
ENCODING 46
SWIDTH 277 0
DWIDTH 4 0
BBX 1 2 1 0
BITMAP
80
80
ENDCHAR

STARTCHAR slash
ENCODING 47
SWIDTH 437 0
DWIDTH 7 0
BBX 9 15 0 -2
BITMAP
0080
0080
0100
0100
0200
0400
0400
0800
1000
1000
2000
4000
4000
8000
8000
ENDCHAR

STARTCHAR zero
ENCODING 48
SWIDTH 554 0
DWIDTH 9 0
BBX 10 13 0 0
BITMAP
0700
0880
1040
2040
2040
4080
4080
4080
8100
8100
8200
4400
3800
ENDCHAR

STARTCHAR one
ENCODING 49
SWIDTH 554 0
DWIDTH 9 0
BBX 4 13 3 0
BITMAP
70
10
10
20
20
20
20
40
40
40
80
80
80
ENDCHAR

STARTCHAR two
ENCODING 50
SWIDTH 554 0
DWIDTH 9 0
BBX 10 13 0 0
BITMAP
0700
0880
1040
1040
0080
0100
0200
0400
0800
1000
2000
4000
FE00
ENDCHAR

STARTCHAR three
ENCODING 51
SWIDTH 554 0
DWIDTH 9 0
BBX 10 13 0 0
BITMAP
0700
0880
1040
1040
0080
0100
0600
0100
0100
8100
8200
8400
7800
ENDCHAR

STARTCHAR four
ENCODING 52
SWIDTH 554 0
DWIDTH 9 0
BBX 9 13 0 0
BITMAP
0080
0180
0280
0480
0900
1100
1100
2200
4200
8200
FF00
0400
0400
ENDCHAR

STARTCHAR five
ENCODING 53
SWIDTH 554 0
DWIDTH 9 0
BBX 10 13 1 0
BITMAP
0FC0
0800
1000
1000
2000
3E00
4100
0100
0100
8100
8200
8400
7800
ENDCHAR

STARTCHAR six
ENCODING 54
SWIDTH 554 0
DWIDTH 9 0
BBX 8 13 1 0
BITMAP
01
02
04
08
10
3E
41
41
81
81
82
84
78
ENDCHAR

STARTCHAR seven
ENCODING 55
SWIDTH 554 0
DWIDTH 9 0
BBX 9 13 1 0
BITMAP
3F80
0100
0100
0200
0400
0400
0800
1000
2000
2000
4000
8000
8000
ENDCHAR

STARTCHAR eight
ENCODING 56
SWIDTH 554 0
DWIDTH 9 0
BBX 10 13 0 0
BITMAP
0700
0880
1040
2040
2080
1100
1E00
2200
4100
8100
8200
4400
3800
ENDCHAR

STARTCHAR nine
ENCODING 57
SWIDTH 554 0
DWIDTH 9 0
BBX 8 13 2 0
BITMAP
1E
21
41
81
81
82
82
7C
08
10
20
40
80
ENDCHAR

STARTCHAR colon
ENCODING 58
SWIDTH 277 0
DWIDTH 5 0
BBX 3 8 1 0
BITMAP
20
20
00
00
00
00
80
80
ENDCHAR

STARTCHAR semicolon
ENCODING 59
SWIDTH 277 0
DWIDTH 5 0
BBX 4 9 1 -1
BITMAP
10
10
00
00
00
00
40
40
80
ENDCHAR

STARTCHAR less
ENCODING 60
SWIDTH 606 0
DWIDTH 10 0
BBX 9 7 1 2
BITMAP
0180
0E00
3000
C000
2000
1800
0600
ENDCHAR

STARTCHAR equal
ENCODING 61
SWIDTH 606 0
DWIDTH 10 0
BBX 9 4 1 3
BITMAP
7F80
0000
0000
FF00
ENDCHAR

STARTCHAR greater
ENCODING 62
SWIDTH 606 0
DWIDTH 10 0
BBX 9 7 1 2
BITMAP
3000
0C00
0200
0180
0600
3800
C000
ENDCHAR

STARTCHAR question
ENCODING 63
SWIDTH 591 0
DWIDTH 10 0
BBX 7 13 4 0
BITMAP
38
44
82
82
04
08
10
20
40
40
00
80
80
ENDCHAR

STARTCHAR at
ENCODING 64
SWIDTH 867 0
DWIDTH 14 0
BBX 13 13 1 0
BITMAP
03E0
0C10
1008
23A8
4448
4888
9090
9110
9120
9240
8D80
6060
1F80
ENDCHAR

STARTCHAR A
ENCODING 65
SWIDTH 740 0
DWIDTH 12 0
BBX 11 13 0 0
BITMAP
0080
0080
0180
0280
0280
0440
0840
1040
1FC0
2020
4020
8020
8020
ENDCHAR

STARTCHAR B
ENCODING 66
SWIDTH 574 0
DWIDTH 9 0
BBX 10 13 0 0
BITMAP
1F00
1080
1040
2080
2080
2100
3E00
4200
4100
4100
8200
8600
F800
ENDCHAR

STARTCHAR C
ENCODING 67
SWIDTH 813 0
DWIDTH 13 0
BBX 13 13 1 0
BITMAP
03E0
0C10
1008
2000
4000
4000
8000
8000
8000
8000
8040
4180
3E00
ENDCHAR

STARTCHAR D
ENCODING 68
SWIDTH 744 0
DWIDTH 12 0
BBX 12 13 0 0
BITMAP
1F80
1060
1020
2010
2010
2010
2010
4020
4020
4040
8080
8300
FC00
ENDCHAR

STARTCHAR E
ENCODING 69
SWIDTH 536 0
DWIDTH 9 0
BBX 9 13 0 0
BITMAP
1F80
1000
1000
2000
2000
2000
3F00
4000
4000
4000
8000
8000
FC00
ENDCHAR

STARTCHAR F
ENCODING 70
SWIDTH 485 0
DWIDTH 8 0
BBX 9 13 0 0
BITMAP
1F80
1000
1000
2000
2000
2000
3F00
4000
4000
4000
8000
8000
8000
ENDCHAR

STARTCHAR G
ENCODING 71
SWIDTH 872 0
DWIDTH 14 0
BBX 13 13 1 0
BITMAP
03E0
0C10
1008
2000
4000
4000
8000
8FF0
8010
8020
8040
4180
3E00
ENDCHAR

STARTCHAR H
ENCODING 72
SWIDTH 683 0
DWIDTH 11 0
BBX 12 13 0 0
BITMAP
1010
1010
1010
2020
2020
2020
3FE0
4040
4040
4040
8080
8080
8080
ENDCHAR

STARTCHAR I
ENCODING 73
SWIDTH 226 0
DWIDTH 4 0
BBX 4 13 1 0
BITMAP
10
10
10
20
20
20
20
40
40
40
80
80
80
ENDCHAR

STARTCHAR J
ENCODING 74
SWIDTH 482 0
DWIDTH 8 0
BBX 9 13 0 0
BITMAP
0080
0080
0080
0100
0100
0100
0100
0200
0200
0200
8400
8400
7800
ENDCHAR

STARTCHAR K
ENCODING 75
SWIDTH 591 0
DWIDTH 10 0
BBX 11 13 1 0
BITMAP
1020
1040
1080
2100
2200
2400
2800
7000
4800
4400
8200
8100
8100
ENDCHAR

STARTCHAR L
ENCODING 76
SWIDTH 462 0
DWIDTH 7 0
BBX 6 13 1 0
BITMAP
10
10
10
20
20
20
20
40
40
40
80
80
FC
ENDCHAR

STARTCHAR M
ENCODING 77
SWIDTH 919 0
DWIDTH 15 0
BBX 15 13 1 0
BITMAP
1806
1806
180A
280C
2814
2824
2828
4448
4488
4488
8510
8610
8610
ENDCHAR

STARTCHAR N
ENCODING 78
SWIDTH 740 0
DWIDTH 12 0
BBX 12 13 1 0
BITMAP
1010
1810
1810
1420
2420
2420
2220
4240
4240
4140
8180
8080
8080
ENDCHAR

STARTCHAR O
ENCODING 79
SWIDTH 869 0
DWIDTH 14 0
BBX 13 13 1 0
BITMAP
03E0
0C10
1008
2008
4008
4008
8008
8010
8010
8020
8040
4180
3E00
ENDCHAR

STARTCHAR P
ENCODING 80
SWIDTH 592 0
DWIDTH 10 0
BBX 11 13 0 0
BITMAP
1F80
1040
1020
2020
2020
2040
2180
7E00
4000
4000
8000
8000
8000
ENDCHAR

STARTCHAR Q
ENCODING 81
SWIDTH 871 0
DWIDTH 14 0
BBX 13 13 1 0
BITMAP
03E0
0C10
1008
2008
4008
4008
8008
8010
F810
8620
8140
6180
1E60
ENDCHAR

STARTCHAR R
ENCODING 82
SWIDTH 607 0
DWIDTH 10 0
BBX 11 13 0 0
BITMAP
1F80
1040
1020
2020
2040
2040
2180
4E00
4800
4400
8200
8100
8100
ENDCHAR

STARTCHAR S
ENCODING 83
SWIDTH 498 0
DWIDTH 8 0
BBX 9 13 0 0
BITMAP
0700
0880
1080
2000
2000
2000
1C00
0200
0200
0200
8400
8800
7000
ENDCHAR

STARTCHAR T
ENCODING 84
SWIDTH 426 0
DWIDTH 7 0
BBX 7 13 2 0
BITMAP
FE
10
10
20
20
20
20
40
40
40
80
80
80
ENDCHAR

STARTCHAR U
ENCODING 85
SWIDTH 655 0
DWIDTH 10 0
BBX 10 13 1 0
BITMAP
2040
2040
2040
4080
4080
4080
4080
8100
8100
8100
8200
8400
7800
ENDCHAR

STARTCHAR V
ENCODING 86
SWIDTH 702 0
DWIDTH 11 0
BBX 11 13 2 0
BITMAP
8020
8020
8040
8080
4100
4100
4200
4400
4400
2800
3000
2000
2000
ENDCHAR

STARTCHAR W
ENCODING 87
SWIDTH 960 0
DWIDTH 15 0
BBX 13 13 3 0
BITMAP
8208
8208
8208
8610
8A20
8A20
9240
9240
A280
A280
C300
8200
8200
ENDCHAR

STARTCHAR X
ENCODING 88
SWIDTH 609 0
DWIDTH 10 0
BBX 12 13 0 0
BITMAP
1010
1010
1020
0840
0880
0500
0600
0A00
1100
2100
4080
8080
8080
ENDCHAR

STARTCHAR Y
ENCODING 89
SWIDTH 592 0
DWIDTH 9 0
BBX 9 13 2 0
BITMAP
8080
8080
8100
4200
4400
4400
4800
3000
2000
2000
4000
4000
4000
ENDCHAR

STARTCHAR Z
ENCODING 90
SWIDTH 480 0
DWIDTH 8 0
BBX 10 13 0 0
BITMAP
1FC0
0040
0080
0100
0200
0400
0800
1000
2000
4000
8000
8000
FE00
ENDCHAR

STARTCHAR bracketleft
ENCODING 91
SWIDTH 351 0
DWIDTH 6 0
BBX 6 15 1 -2
BITMAP
0C
10
20
20
40
40
40
40
80
80
80
80
80
80
40
ENDCHAR

STARTCHAR backslash
ENCODING 92
SWIDTH 605 0
DWIDTH 10 0
BBX 3 13 4 0
BITMAP
80
80
80
80
40
40
40
40
40
20
20
20
20
ENDCHAR

STARTCHAR bracketright
ENCODING 93
SWIDTH 351 0
DWIDTH 6 0
BBX 6 15 0 -2
BITMAP
08
04
04
04
04
04
04
08
08
08
08
10
10
20
C0
ENDCHAR

STARTCHAR asciicircum
ENCODING 94
SWIDTH 672 0
DWIDTH 10 0
BBX 9 10 1 3
BITMAP
0200
0200
0600
0900
1100
1100
2100
4080
8080
8080
ENDCHAR

STARTCHAR underscore
ENCODING 95
SWIDTH 500 0
DWIDTH 8 0
BBX 8 1 -1 -2
BITMAP
FF
ENDCHAR

STARTCHAR quoteleft
ENCODING 96
SWIDTH 351 0
DWIDTH 6 0
BBX 2 3 4 10
BITMAP
80
80
40
ENDCHAR

STARTCHAR a
ENCODING 97
SWIDTH 683 0
DWIDTH 11 0
BBX 10 9 1 0
BITMAP
0F40
30C0
4080
4080
8080
8080
8100
4300
3D00
ENDCHAR

STARTCHAR b
ENCODING 98
SWIDTH 682 0
DWIDTH 11 0
BBX 10 13 1 0
BITMAP
1000
1000
1000
2000
2F00
3080
2040
4040
4040
4080
8080
C300
BC00
ENDCHAR

STARTCHAR c
ENCODING 99
SWIDTH 647 0
DWIDTH 10 0
BBX 9 9 1 0
BITMAP
0F00
3080
4080
4000
8000
8000
8100
4200
3C00
ENDCHAR

STARTCHAR d
ENCODING 100
SWIDTH 685 0
DWIDTH 11 0
BBX 11 13 1 0
BITMAP
0020
0020
0020
0040
0F40
30C0
4040
4080
8080
8080
8100
4300
3D00
ENDCHAR

STARTCHAR e
ENCODING 101
SWIDTH 650 0
DWIDTH 10 0
BBX 9 9 1 0
BITMAP
0E00
3100
4080
4080
FF80
8000
8100
4200
3C00
ENDCHAR

STARTCHAR f
ENCODING 102
SWIDTH 314 0
DWIDTH 5 0
BBX 6 13 2 0
BITMAP
0C
10
10
10
78
20
20
40
40
40
80
80
80
ENDCHAR

STARTCHAR g
ENCODING 103
SWIDTH 673 0
DWIDTH 11 0
BBX 11 12 1 -3
BITMAP
07A0
1860
2020
2040
4040
4040
4080
2180
1F00
8100
4200
3C00
ENDCHAR

STARTCHAR h
ENCODING 104
SWIDTH 610 0
DWIDTH 10 0
BBX 10 13 1 0
BITMAP
1000
1000
1000
2000
2F00
3080
2040
4080
4080
4080
8100
8100
8100
ENDCHAR

STARTCHAR i
ENCODING 105
SWIDTH 200 0
DWIDTH 3 0
BBX 4 13 1 0
BITMAP
10
10
00
00
20
20
20
40
40
40
80
80
80
ENDCHAR

STARTCHAR j
ENCODING 106
SWIDTH 203 0
DWIDTH 3 0
BBX 7 16 -2 -3
BITMAP
02
02
00
00
04
04
04
08
08
08
10
10
10
20
20
C0
ENDCHAR

STARTCHAR k
ENCODING 107
SWIDTH 502 0
DWIDTH 8 0
BBX 8 13 1 0
BITMAP
10
10
10
20
21
22
24
48
70
50
88
84
82
ENDCHAR

STARTCHAR l
ENCODING 108
SWIDTH 200 0
DWIDTH 3 0
BBX 4 13 1 0
BITMAP
10
10
10
20
20
20
40
40
40
40
80
80
80
ENDCHAR

STARTCHAR m
ENCODING 109
SWIDTH 938 0
DWIDTH 15 0
BBX 15 9 1 0
BITMAP
2E38
3144
2082
4104
4104
4104
8208
8208
8208
ENDCHAR

STARTCHAR n
ENCODING 110
SWIDTH 610 0
DWIDTH 10 0
BBX 10 9 1 0
BITMAP
2F00
3080
2040
4080
4080
4080
8100
8100
8100
ENDCHAR

STARTCHAR o
ENCODING 111
SWIDTH 655 0
DWIDTH 11 0
BBX 10 9 1 0
BITMAP
0F00
3080
4040
4040
8040
8080
8080
4300
3C00
ENDCHAR

STARTCHAR p
ENCODING 112
SWIDTH 682 0
DWIDTH 11 0
BBX 11 12 0 -3
BITMAP
1780
1840
1020
2020
2020
2040
4040
6180
5E00
8000
8000
8000
ENDCHAR

STARTCHAR q
ENCODING 113
SWIDTH 682 0
DWIDTH 11 0
BBX 10 12 1 -3
BITMAP
0F40
30C0
4040
4080
8080
8080
8100
4300
3D00
0100
0200
0200
ENDCHAR

STARTCHAR r
ENCODING 114
SWIDTH 301 0
DWIDTH 5 0
BBX 6 9 1 0
BITMAP
2C
30
20
40
40
40
80
80
80
ENDCHAR

STARTCHAR s
ENCODING 115
SWIDTH 388 0
DWIDTH 6 0
BBX 7 9 0 0
BITMAP
1C
22
40
40
38
04
04
88
70
ENDCHAR

STARTCHAR t
ENCODING 116
SWIDTH 339 0
DWIDTH 5 0
BBX 6 13 1 0
BITMAP
10
10
10
20
FC
20
20
40
40
40
80
80
80
ENDCHAR

STARTCHAR u
ENCODING 117
SWIDTH 608 0
DWIDTH 10 0
BBX 10 9 1 0
BITMAP
2040
2040
2040
4080
4080
4080
8100
4300
3D00
ENDCHAR

STARTCHAR v
ENCODING 118
SWIDTH 554 0
DWIDTH 9 0
BBX 8 9 2 0
BITMAP
81
81
82
84
84
48
50
60
40
ENDCHAR

STARTCHAR w
ENCODING 119
SWIDTH 831 0
DWIDTH 13 0
BBX 12 9 2 0
BITMAP
8010
8210
8620
4A20
4A40
5140
6180
4100
4100
ENDCHAR

STARTCHAR x
ENCODING 120
SWIDTH 480 0
DWIDTH 8 0
BBX 9 9 0 0
BITMAP
2080
2100
1200
1400
0800
1400
2400
4200
8200
ENDCHAR

STARTCHAR y
ENCODING 121
SWIDTH 536 0
DWIDTH 9 0
BBX 9 12 1 -3
BITMAP
4080
4080
4100
2200
2200
2400
1800
1000
2000
4000
4000
8000
ENDCHAR

STARTCHAR z
ENCODING 122
SWIDTH 425 0
DWIDTH 7 0
BBX 8 9 0 0
BITMAP
3F
02
04
08
10
20
40
80
FC
ENDCHAR

STARTCHAR braceleft
ENCODING 123
SWIDTH 351 0
DWIDTH 6 0
BBX 7 15 1 -2
BITMAP
06
08
08
08
10
10
20
40
20
20
40
40
80
80
60
ENDCHAR

STARTCHAR bar
ENCODING 124
SWIDTH 672 0
DWIDTH 11 0
BBX 4 13 5 0
BITMAP
10
10
10
20
20
20
20
40
40
40
80
80
80
ENDCHAR

STARTCHAR braceright
ENCODING 125
SWIDTH 351 0
DWIDTH 6 0
BBX 7 15 -1 -2
BITMAP
0C
02
02
04
04
08
08
04
08
10
10
20
20
20
C0
ENDCHAR

STARTCHAR asciitilde
ENCODING 126
SWIDTH 606 0
DWIDTH 10 0
BBX 8 2 1 4
BITMAP
71
8E
ENDCHAR

STARTCHAR exclamdown
ENCODING 161
SWIDTH 295 0
DWIDTH 5 0
BBX 4 13 0 -3
BITMAP
10
10
00
20
20
20
40
40
40
40
80
80
80
ENDCHAR

STARTCHAR cent
ENCODING 162
SWIDTH 554 0
DWIDTH 9 0
BBX 8 11 1 1
BITMAP
04
04
1C
62
41
80
82
44
38
20
20
ENDCHAR

STARTCHAR sterling
ENCODING 163
SWIDTH 554 0
DWIDTH 9 0
BBX 11 13 0 0
BITMAP
0780
0840
1020
2000
2000
1000
7F00
1000
0880
1080
2080
4300
FC00
ENDCHAR

STARTCHAR currency
ENCODING 164
SWIDTH 554 0
DWIDTH 9 0
BBX 10 8 0 1
BITMAP
2F40
1080
2080
4080
4080
4100
4200
BD00
ENDCHAR

STARTCHAR yen
ENCODING 165
SWIDTH 554 0
DWIDTH 9 0
BBX 10 13 1 0
BITMAP
4040
4040
4080
2100
2200
6300
2400
1800
FE00
1000
2000
2000
2000
ENDCHAR

STARTCHAR brokenbar
ENCODING 166
SWIDTH 672 0
DWIDTH 11 0
BBX 4 13 5 0
BITMAP
10
10
20
20
20
00
00
00
40
40
80
80
80
ENDCHAR

STARTCHAR section
ENCODING 167
SWIDTH 615 0
DWIDTH 10 0
BBX 11 15 0 -2
BITMAP
03C0
0420
0820
0800
0E00
1180
2080
2080
3100
0E00
0400
0200
8200
8400
7800
ENDCHAR

STARTCHAR dieresis
ENCODING 168
SWIDTH 369 0
DWIDTH 6 0
BBX 3 2 3 10
BITMAP
A0
A0
ENDCHAR

STARTCHAR copyright
ENCODING 169
SWIDTH 747 0
DWIDTH 13 0
BBX 14 13 0 0
BITMAP
03E0
0C10
1008
2384
4444
4824
9004
9048
8888
8710
4020
20C0
1F00
ENDCHAR

STARTCHAR ordfeminine
ENCODING 170
SWIDTH 369 0
DWIDTH 6 0
BBX 7 7 1 6
BITMAP
1A
26
44
4C
34
00
F8
ENDCHAR

STARTCHAR guillemotleft
ENCODING 171
SWIDTH 425 0
DWIDTH 7 0
BBX 7 7 1 2
BITMAP
12
24
48
90
90
48
48
ENDCHAR

STARTCHAR logicalnot
ENCODING 172
SWIDTH 606 0
DWIDTH 10 0
BBX 8 5 2 2
BITMAP
FF
02
02
04
04
ENDCHAR

STARTCHAR hyphen
ENCODING 173
SWIDTH 332 0
DWIDTH 5 0
BBX 4 1 1 5
BITMAP
F0
ENDCHAR

STARTCHAR registered
ENCODING 174
SWIDTH 747 0
DWIDTH 13 0
BBX 14 13 0 0
BITMAP
03E0
0C10
1008
23C4
4424
4424
87C4
8908
8888
8850
4020
20C0
1F00
ENDCHAR

STARTCHAR macron
ENCODING 175
SWIDTH 485 0
DWIDTH 8 0
BBX 5 1 3 10
BITMAP
F8
ENDCHAR

STARTCHAR degree
ENCODING 176
SWIDTH 400 0
DWIDTH 7 0
BBX 5 5 3 8
BITMAP
78
88
88
88
F0
ENDCHAR

STARTCHAR plusminus
ENCODING 177
SWIDTH 606 0
DWIDTH 10 0
BBX 9 9 1 0
BITMAP
0200
0200
0400
7F80
0800
1000
1000
0000
FE00
ENDCHAR

STARTCHAR twosuperior
ENCODING 178
SWIDTH 332 0
DWIDTH 6 0
BBX 7 8 1 5
BITMAP
1C
22
02
04
08
30
40
F8
ENDCHAR

STARTCHAR threesuperior
ENCODING 179
SWIDTH 332 0
DWIDTH 6 0
BBX 6 8 2 5
BITMAP
38
44
04
18
08
88
88
70
ENDCHAR

STARTCHAR acute
ENCODING 180
SWIDTH 375 0
DWIDTH 6 0
BBX 3 2 4 10
BITMAP
60
C0
ENDCHAR

STARTCHAR mu
ENCODING 181
SWIDTH 608 0
DWIDTH 10 0
BBX 11 12 -1 -3
BITMAP
1020
1020
1020
2040
2040
2040
4080
6180
5E80
8000
8000
8000
ENDCHAR

STARTCHAR paragraph
ENCODING 182
SWIDTH 564 0
DWIDTH 9 0
BBX 8 15 2 -2
BITMAP
3F
79
F9
F2
F2
72
12
24
24
24
48
48
48
90
90
ENDCHAR

STARTCHAR periodcentered
ENCODING 183
SWIDTH 277 0
DWIDTH 5 0
BBX 1 2 2 4
BITMAP
80
80
ENDCHAR

STARTCHAR cedilla
ENCODING 184
SWIDTH 324 0
DWIDTH 5 0
BBX 3 4 0 -3
BITMAP
40
C0
20
C0
ENDCHAR

STARTCHAR onesuperior
ENCODING 185
SWIDTH 332 0
DWIDTH 6 0
BBX 3 8 3 5
BITMAP
60
20
20
40
40
40
80
80
ENDCHAR

STARTCHAR ordmasculine
ENCODING 186
SWIDTH 369 0
DWIDTH 6 0
BBX 7 7 1 6
BITMAP
1C
22
42
44
38
00
F8
ENDCHAR

STARTCHAR guillemotright
ENCODING 187
SWIDTH 425 0
DWIDTH 7 0
BBX 7 7 1 2
BITMAP
24
24
12
12
24
48
90
ENDCHAR

STARTCHAR onequarter
ENCODING 188
SWIDTH 831 0
DWIDTH 14 0
BBX 10 13 3 0
BITMAP
6080
2080
2100
4200
4400
4440
88C0
9180
1280
2480
4900
9F80
8100
ENDCHAR

STARTCHAR onehalf
ENCODING 189
SWIDTH 831 0
DWIDTH 14 0
BBX 11 13 3 0
BITMAP
6080
2080
2100
4200
4400
45C0
8A20
9020
1040
2080
4300
8400
8F80
ENDCHAR

STARTCHAR threequarters
ENCODING 190
SWIDTH 831 0
DWIDTH 14 0
BBX 12 13 2 0
BITMAP
3820
4420
0440
1880
0900
8910
8A30
7460
04A0
0920
1240
27E0
2040
ENDCHAR

STARTCHAR questiondown
ENCODING 191
SWIDTH 591 0
DWIDTH 10 0
BBX 7 13 1 -3
BITMAP
02
02
00
04
04
08
10
20
40
82
82
44
38
ENDCHAR

STARTCHAR Agrave
ENCODING 192
SWIDTH 740 0
DWIDTH 12 0
BBX 11 16 0 0
BITMAP
0300
0180
0000
0080
0080
0180
0280
0280
0440
0840
1040
1FC0
2020
4020
8020
8020
ENDCHAR

STARTCHAR Aacute
ENCODING 193
SWIDTH 740 0
DWIDTH 12 0
BBX 11 16 0 0
BITMAP
0060
00C0
0000
0080
0080
0180
0280
0280
0440
0840
1040
1FC0
2020
4020
8020
8020
ENDCHAR

STARTCHAR Acircumflex
ENCODING 194
SWIDTH 740 0
DWIDTH 12 0
BBX 11 16 0 0
BITMAP
01C0
0360
0000
0080
0080
0180
0280
0280
0440
0840
1040
1FC0
2020
4020
8020
8020
ENDCHAR

STARTCHAR Atilde
ENCODING 195
SWIDTH 740 0
DWIDTH 12 0
BBX 11 16 0 0
BITMAP
01A0
02C0
0000
0080
0080
0180
0280
0280
0440
0840
1040
1FC0
2020
4020
8020
8020
ENDCHAR

STARTCHAR Adieresis
ENCODING 196
SWIDTH 740 0
DWIDTH 12 0
BBX 11 16 0 0
BITMAP
0140
0140
0000
0080
0080
0180
0280
0280
0440
0840
1040
1FC0
2020
4020
8020
8020
ENDCHAR

STARTCHAR Aring
ENCODING 197
SWIDTH 740 0
DWIDTH 12 0
BBX 11 16 0 0
BITMAP
00C0
0120
00C0
0080
0080
0180
0280
0280
0440
0840
1040
1FC0
2020
4020
8020
8020
ENDCHAR

STARTCHAR AE
ENCODING 198
SWIDTH 992 0
DWIDTH 16 0
BBX 17 13 0 0
BITMAP
001F80
003000
005000
009000
012000
022000
043F00
084000
1FC000
204000
408000
808000
80FC00
ENDCHAR

STARTCHAR Ccedilla
ENCODING 199
SWIDTH 813 0
DWIDTH 13 0
BBX 13 16 2 -3
BITMAP
03E0
0C10
1008
2000
4000
4000
8000
8000
8000
8000
8040
4180
3E00
1800
0400
1800
ENDCHAR

STARTCHAR Egrave
ENCODING 200
SWIDTH 536 0
DWIDTH 9 0
BBX 9 16 0 0
BITMAP
0C00
0600
0000
1F80
1000
1000
2000
2000
2000
3F00
4000
4000
4000
8000
8000
FC00
ENDCHAR

STARTCHAR Eacute
ENCODING 201
SWIDTH 536 0
DWIDTH 9 0
BBX 9 16 0 0
BITMAP
0300
0600
0000
1F80
1000
1000
2000
2000
2000
3F00
4000
4000
4000
8000
8000
FC00
ENDCHAR

STARTCHAR Ecircumflex
ENCODING 202
SWIDTH 536 0
DWIDTH 9 0
BBX 9 16 0 0
BITMAP
0700
0D80
0000
1F80
1000
1000
2000
2000
2000
3F00
4000
4000
4000
8000
8000
FC00
ENDCHAR

STARTCHAR Edieresis
ENCODING 203
SWIDTH 536 0
DWIDTH 9 0
BBX 9 16 0 0
BITMAP
0500
0500
0000
1F80
1000
1000
2000
2000
2000
3F00
4000
4000
4000
8000
8000
FC00
ENDCHAR

STARTCHAR Igrave
ENCODING 204
SWIDTH 226 0
DWIDTH 4 0
BBX 4 16 1 0
BITMAP
60
30
00
10
10
10
20
20
20
20
40
40
40
80
80
80
ENDCHAR

STARTCHAR Iacute
ENCODING 205
SWIDTH 226 0
DWIDTH 4 0
BBX 6 16 1 0
BITMAP
0C
18
00
10
10
10
20
20
20
20
40
40
40
80
80
80
ENDCHAR

STARTCHAR Icircumflex
ENCODING 206
SWIDTH 226 0
DWIDTH 4 0
BBX 7 16 1 0
BITMAP
1C
36
00
10
10
10
20
20
20
20
40
40
40
80
80
80
ENDCHAR

STARTCHAR Idieresis
ENCODING 207
SWIDTH 226 0
DWIDTH 4 0
BBX 5 16 1 0
BITMAP
28
28
00
10
10
10
20
20
20
20
40
40
40
80
80
80
ENDCHAR

STARTCHAR Eth
ENCODING 208
SWIDTH 790 0
DWIDTH 13 0
BBX 12 13 1 0
BITMAP
1FC0
1020
1010
2010
2010
2010
F810
4020
4020
4040
8080
8300
FC00
ENDCHAR

STARTCHAR Ntilde
ENCODING 209
SWIDTH 740 0
DWIDTH 12 0
BBX 12 16 1 0
BITMAP
01A0
02C0
0000
0810
1810
1810
1420
2420
2420
2220
4240
4240
4240
8180
8180
8080
ENDCHAR

STARTCHAR Ograve
ENCODING 210
SWIDTH 869 0
DWIDTH 14 0
BBX 13 16 1 0
BITMAP
0300
0180
0000
03E0
0C10
1008
2008
4008
4008
8008
8010
8010
8020
8040
4180
3E00
ENDCHAR

STARTCHAR Oacute
ENCODING 211
SWIDTH 869 0
DWIDTH 14 0
BBX 13 16 1 0
BITMAP
0060
00C0
0000
03E0
0C10
1008
2008
4008
4008
8008
8010
8010
8020
8040
4180
3E00
ENDCHAR

STARTCHAR Ocircumflex
ENCODING 212
SWIDTH 869 0
DWIDTH 14 0
BBX 13 16 1 0
BITMAP
00E0
01B0
0000
03E0
0C10
1008
2008
4008
4008
8008
8010
8010
8020
8040
4180
3E00
ENDCHAR

STARTCHAR Otilde
ENCODING 213
SWIDTH 869 0
DWIDTH 14 0
BBX 13 16 1 0
BITMAP
00D0
0160
0000
03E0
0C10
1008
2008
4008
4008
8008
8010
8010
8020
8040
4180
3E00
ENDCHAR

STARTCHAR Odieresis
ENCODING 214
SWIDTH 869 0
DWIDTH 14 0
BBX 13 16 1 0
BITMAP
0140
0140
0000
03E0
0C10
1008
2008
4008
4008
8008
8010
8010
8020
8040
4180
3E00
ENDCHAR

STARTCHAR multiply
ENCODING 215
SWIDTH 606 0
DWIDTH 10 0
BBX 10 8 1 1
BITMAP
2040
2080
1300
0C00
0C00
3200
4100
8100
ENDCHAR

STARTCHAR Oslash
ENCODING 216
SWIDTH 868 0
DWIDTH 14 0
BBX 15 15 0 -1
BITMAP
0002
01F4
0608
0814
1024
2044
2084
4104
4208
4408
4810
5020
20C0
5F00
8000
ENDCHAR

STARTCHAR Ugrave
ENCODING 217
SWIDTH 655 0
DWIDTH 10 0
BBX 10 16 1 0
BITMAP
0C00
0600
0000
2040
2040
2040
4080
4080
4080
4080
8100
8100
8100
8200
8400
7800
ENDCHAR

STARTCHAR Uacute
ENCODING 218
SWIDTH 655 0
DWIDTH 10 0
BBX 10 16 1 0
BITMAP
0300
0600
0000
2040
2040
2040
4080
4080
4080
4080
8100
8100
8100
8200
8400
7800
ENDCHAR

STARTCHAR Ucircumflex
ENCODING 219
SWIDTH 655 0
DWIDTH 10 0
BBX 10 16 1 0
BITMAP
0700
0D80
0000
2040
2040
2040
4080
4080
4080
4080
8100
8100
8100
8200
8400
7800
ENDCHAR

STARTCHAR Udieresis
ENCODING 220
SWIDTH 655 0
DWIDTH 10 0
BBX 10 16 1 0
BITMAP
0500
0500
0000
2040
2040
2040
4080
4080
4080
4080
8100
8100
8100
8200
8400
7800
ENDCHAR

STARTCHAR Yacute
ENCODING 221
SWIDTH 592 0
DWIDTH 9 0
BBX 9 16 2 0
BITMAP
0600
0C00
0000
8080
8080
8100
4200
4400
4400
4800
3000
2000
2000
4000
4000
4000
ENDCHAR

STARTCHAR Thorn
ENCODING 222
SWIDTH 592 0
DWIDTH 9 0
BBX 10 13 0 0
BITMAP
1000
1000
1000
3F00
2080
2040
2040
4080
4100
7E00
8000
8000
8000
ENDCHAR

STARTCHAR germandbls
ENCODING 223
SWIDTH 554 0
DWIDTH 9 0
BBX 9 13 1 0
BITMAP
0700
0880
1080
1080
2100
2200
2C00
4200
4100
4100
8200
A600
B800
ENDCHAR

STARTCHAR agrave
ENCODING 224
SWIDTH 683 0
DWIDTH 11 0
BBX 10 12 1 0
BITMAP
0600
0300
0000
0F40
30C0
4080
4080
8080
8080
8100
4300
3D00
ENDCHAR

STARTCHAR aacute
ENCODING 225
SWIDTH 683 0
DWIDTH 11 0
BBX 10 12 1 0
BITMAP
0300
0600
0000
0F40
30C0
4080
4080
8080
8080
8100
4300
3D00
ENDCHAR

STARTCHAR acircumflex
ENCODING 226
SWIDTH 683 0
DWIDTH 11 0
BBX 10 12 1 0
BITMAP
0700
0D80
0000
0F40
30C0
4080
4080
8080
8080
8100
4300
3D00
ENDCHAR

STARTCHAR atilde
ENCODING 227
SWIDTH 683 0
DWIDTH 11 0
BBX 10 12 1 0
BITMAP
0680
0B00
0000
0F40
30C0
4080
4080
8080
8080
8100
4300
3D00
ENDCHAR

STARTCHAR adieresis
ENCODING 228
SWIDTH 683 0
DWIDTH 11 0
BBX 10 12 1 0
BITMAP
0500
0500
0000
0F40
30C0
4080
4080
8080
8080
8100
4300
3D00
ENDCHAR

STARTCHAR aring
ENCODING 229
SWIDTH 683 0
DWIDTH 11 0
BBX 10 13 1 0
BITMAP
0200
0500
0200
0000
0F40
30C0
4080
4080
8080
8080
8100
4300
3D00
ENDCHAR

STARTCHAR ae
ENCODING 230
SWIDTH 1157 0
DWIDTH 18 0
BBX 17 9 1 0
BITMAP
0F5E00
30E100
404080
408080
80FF80
808000
818100
434200
3D3C00
ENDCHAR

STARTCHAR ccedilla
ENCODING 231
SWIDTH 647 0
DWIDTH 11 0
BBX 9 12 1 -3
BITMAP
0F00
3080
4080
4000
8000
8000
8100
4200
3C00
3000
0800
3000
ENDCHAR

STARTCHAR egrave
ENCODING 232
SWIDTH 650 0
DWIDTH 11 0
BBX 9 12 2 0
BITMAP
0C00
0600
0000
0E00
3100
4080
4080
FF80
8000
8100
4200
3C00
ENDCHAR

STARTCHAR eacute
ENCODING 233
SWIDTH 650 0
DWIDTH 11 0
BBX 9 12 2 0
BITMAP
0300
0600
0000
0E00
3100
4080
4080
FF80
8000
8100
4200
3C00
ENDCHAR

STARTCHAR ecircumflex
ENCODING 234
SWIDTH 650 0
DWIDTH 11 0
BBX 9 12 2 0
BITMAP
0E00
1B00
0000
0E00
3100
4080
4080
FF80
8000
8100
4200
3C00
ENDCHAR

STARTCHAR edieresis
ENCODING 235
SWIDTH 650 0
DWIDTH 11 0
BBX 9 12 2 0
BITMAP
0A00
0A00
0000
0E00
3100
4080
4080
FF80
8000
8100
4200
3C00
ENDCHAR

STARTCHAR igrave
ENCODING 236
SWIDTH 200 0
DWIDTH 3 0
BBX 3 12 0 0
BITMAP
C0
60
00
20
20
20
40
40
40
80
80
80
ENDCHAR

STARTCHAR iacute
ENCODING 237
SWIDTH 200 0
DWIDTH 3 0
BBX 5 12 0 0
BITMAP
18
30
00
20
20
20
40
40
40
80
80
80
ENDCHAR

STARTCHAR icircumflex
ENCODING 238
SWIDTH 200 0
DWIDTH 3 0
BBX 5 12 0 0
BITMAP
70
D8
00
20
20
20
40
40
40
80
80
80
ENDCHAR

STARTCHAR idieresis
ENCODING 239
SWIDTH 200 0
DWIDTH 3 0
BBX 4 12 0 0
BITMAP
50
50
00
20
20
20
40
40
40
80
80
80
ENDCHAR

STARTCHAR eth
ENCODING 240
SWIDTH 655 0
DWIDTH 11 0
BBX 10 13 1 0
BITMAP
0CC0
0300
0480
0080
0F40
30C0
4040
4040
8040
8080
8080
4300
3C00
ENDCHAR

STARTCHAR ntilde
ENCODING 241
SWIDTH 610 0
DWIDTH 10 0
BBX 10 12 1 0
BITMAP
0680
0B00
0000
2F00
3080
2040
4080
4080
4080
8100
8100
8100
ENDCHAR

STARTCHAR ograve
ENCODING 242
SWIDTH 655 0
DWIDTH 11 0
BBX 10 12 1 0
BITMAP
0600
0300
0000
0F00
3080
4040
4040
8040
8080
8080
4300
3C00
ENDCHAR

STARTCHAR oacute
ENCODING 243
SWIDTH 655 0
DWIDTH 11 0
BBX 10 12 1 0
BITMAP
0300
0600
0000
0F00
3080
4040
4040
8040
8080
8080
4300
3C00
ENDCHAR

STARTCHAR ocircumflex
ENCODING 244
SWIDTH 655 0
DWIDTH 11 0
BBX 10 12 1 0
BITMAP
0700
0D80
0000
0F00
3080
4040
4040
8040
8080
8080
4300
3C00
ENDCHAR

STARTCHAR otilde
ENCODING 245
SWIDTH 655 0
DWIDTH 11 0
BBX 10 12 1 0
BITMAP
0680
0B00
0000
0F00
3080
4040
4040
8040
8080
8080
4300
3C00
ENDCHAR

STARTCHAR odieresis
ENCODING 246
SWIDTH 655 0
DWIDTH 11 0
BBX 10 12 1 0
BITMAP
0500
0500
0000
0F00
3080
4040
4040
8040
8080
8080
4300
3C00
ENDCHAR

STARTCHAR divide
ENCODING 247
SWIDTH 606 0
DWIDTH 10 0
BBX 7 9 2 1
BITMAP
08
08
00
00
FE
00
00
20
20
ENDCHAR

STARTCHAR oslash
ENCODING 248
SWIDTH 653 0
DWIDTH 11 0
BBX 12 11 0 -1
BITMAP
0010
07A0
1840
20A0
2120
4620
4840
5040
2180
5E00
8000
ENDCHAR

STARTCHAR ugrave
ENCODING 249
SWIDTH 608 0
DWIDTH 10 0
BBX 10 12 0 0
BITMAP
0C00
0600
0000
2040
2040
2040
4080
4080
4080
8100
4300
3D00
ENDCHAR

STARTCHAR uacute
ENCODING 250
SWIDTH 608 0
DWIDTH 10 0
BBX 10 12 0 0
BITMAP
0300
0600
0000
2040
2040
2040
4080
4080
4080
8100
4300
3D00
ENDCHAR

STARTCHAR ucircumflex
ENCODING 251
SWIDTH 608 0
DWIDTH 10 0
BBX 10 12 0 0
BITMAP
0700
0D80
0000
2040
2040
2040
4080
4080
4080
8100
4300
3D00
ENDCHAR

STARTCHAR udieresis
ENCODING 252
SWIDTH 608 0
DWIDTH 10 0
BBX 10 12 0 0
BITMAP
0500
0500
0000
2040
2040
2040
4080
4080
4080
8100
4300
3D00
ENDCHAR

STARTCHAR yacute
ENCODING 253
SWIDTH 536 0
DWIDTH 9 0
BBX 9 15 1 -3
BITMAP
0300
0600
0000
4080
4080
4100
2200
2200
2400
1800
1000
2000
4000
4000
8000
ENDCHAR

STARTCHAR thorn
ENCODING 254
SWIDTH 682 0
DWIDTH 11 0
BBX 11 16 0 -3
BITMAP
0800
0800
0800
1000
1780
1840
1020
2020
2020
2040
4040
6180
5E00
8000
8000
8000
ENDCHAR

STARTCHAR ydieresis
ENCODING 255
SWIDTH 536 0
DWIDTH 9 0
BBX 9 15 1 -3
BITMAP
0A00
0A00
0000
4080
4080
4100
2200
2200
2400
1800
1000
2000
4000
4000
8000
ENDCHAR
ENDFONT
